<svg xmlns="http://www.w3.org/2000/svg" width="48" height="48" viewBox="-12 -12 72 72">
  <rect fill="#f3f3f4" width="100" height="100" x="-12" y="-12"/>
  <path fill="#858B90" fill-rule="evenodd"
        d="M22.588 22.646c-4.266 0-7.724-4.174-7.724-9.323C14.864 8.173 16 4 22.588 4s7.723 4.174 7.723 9.323-3.458 9.323-7.723 9.323zm5.802 19.106c-1.628.231-3.546.373-5.802.373C10.148 42.125 8 37.823 8 37.823L8 36.88c.002.083.009.046.022-.667.165-8.734 1.415-11.252 10.337-12.852 0 0 1.27 1.608 4.229 1.608 2.96 0 4.229-1.608 4.229-1.608 5.107.916 7.7 2.133 9.015 4.644h-.069c-.948 0-1.849.623-2.182 1.51l-.323.774h-1.52c-1.841 0-3.35 1.487-3.35 3.325v8.036c0 .034 0 .068.002.102zm10.135-6.996c1.611 0 2.917 1.288 2.917 2.875 0 1.588-1.306 2.875-2.917 2.875-1.61 0-2.916-1.287-2.916-2.875 0-1.587 1.306-2.875 2.916-2.875zm7-2.867c.963 0 1.75.776 1.75 1.725v8.036c0 .949-.787 1.725-1.75 1.725h-14c-.962 0-1.75-.776-1.75-1.725v-8.036c0-.949.788-1.725 1.75-1.725h2.1c.29 0 .6-.221.692-.491l.542-1.302a.779.779 0 0 1 .691-.491h5.95c.29 0 .6.22.692.49l.542 1.303c.092.27.403.49.691.49h2.1zm-7 10.055c2.416 0 4.375-1.931 4.375-4.313 0-2.381-1.959-4.312-4.375-4.312s-4.375 1.93-4.375 4.312c0 2.382 1.96 4.313 4.375 4.313zm6.563-7.195c.403 0 .73-.322.73-.719a.724.724 0 0 0-.73-.719.724.724 0 0 0-.73.719c0 .397.327.719.73.719z"/>
</svg>
